<mxfile host="Electron" agent="Mozilla/5.0 (Windows NT 10.0; Win64; x64) AppleWebKit/537.36 (KHTML, like Gecko) draw.io/24.7.17 Chrome/128.0.6613.36 Electron/32.0.1 Safari/537.36" version="24.7.17">
  <diagram name="PÃ¡gina-1" id="IdBAVV34fiv63po4-Siv">
    <mxGraphModel dx="1035" dy="626" grid="1" gridSize="10" guides="1" tooltips="1" connect="1" arrows="1" fold="1" page="1" pageScale="1" pageWidth="827" pageHeight="1169" math="0" shadow="0">
      <root>
        <mxCell id="0" />
        <mxCell id="1" parent="0" />
        <mxCell id="b2TmTaMQZMDxcuzw8Iw9-1" value="" style="swimlane;startSize=0;" vertex="1" parent="1">
          <mxGeometry x="160" y="70" width="520" height="510" as="geometry" />
        </mxCell>
        <mxCell id="b2TmTaMQZMDxcuzw8Iw9-4" value="RECICLAR" style="ellipse;whiteSpace=wrap;html=1;" vertex="1" parent="b2TmTaMQZMDxcuzw8Iw9-1">
          <mxGeometry x="90" y="70" width="80" height="60" as="geometry" />
        </mxCell>
        <mxCell id="b2TmTaMQZMDxcuzw8Iw9-5" value="Solicitar&lt;div&gt;Listado&lt;/div&gt;" style="ellipse;whiteSpace=wrap;html=1;" vertex="1" parent="b2TmTaMQZMDxcuzw8Iw9-1">
          <mxGeometry x="90" y="260" width="80" height="60" as="geometry" />
        </mxCell>
        <mxCell id="b2TmTaMQZMDxcuzw8Iw9-6" value="Actualizar Montos" style="ellipse;whiteSpace=wrap;html=1;" vertex="1" parent="b2TmTaMQZMDxcuzw8Iw9-1">
          <mxGeometry x="90" y="390" width="80" height="60" as="geometry" />
        </mxCell>
        <mxCell id="b2TmTaMQZMDxcuzw8Iw9-7" style="edgeStyle=orthogonalEdgeStyle;rounded=0;orthogonalLoop=1;jettySize=auto;html=1;curved=1;" edge="1" parent="1" source="b2TmTaMQZMDxcuzw8Iw9-2" target="b2TmTaMQZMDxcuzw8Iw9-4">
          <mxGeometry relative="1" as="geometry" />
        </mxCell>
        <mxCell id="b2TmTaMQZMDxcuzw8Iw9-2" value="Persona" style="shape=umlActor;verticalLabelPosition=bottom;verticalAlign=top;html=1;outlineConnect=0;" vertex="1" parent="1">
          <mxGeometry x="70" y="150" width="30" height="60" as="geometry" />
        </mxCell>
        <mxCell id="b2TmTaMQZMDxcuzw8Iw9-8" style="edgeStyle=orthogonalEdgeStyle;rounded=0;orthogonalLoop=1;jettySize=auto;html=1;entryX=0;entryY=0.5;entryDx=0;entryDy=0;curved=1;" edge="1" parent="1" source="b2TmTaMQZMDxcuzw8Iw9-3" target="b2TmTaMQZMDxcuzw8Iw9-5">
          <mxGeometry relative="1" as="geometry" />
        </mxCell>
        <mxCell id="b2TmTaMQZMDxcuzw8Iw9-9" style="edgeStyle=orthogonalEdgeStyle;rounded=0;orthogonalLoop=1;jettySize=auto;html=1;entryX=0;entryY=0.5;entryDx=0;entryDy=0;curved=1;" edge="1" parent="1" source="b2TmTaMQZMDxcuzw8Iw9-3" target="b2TmTaMQZMDxcuzw8Iw9-6">
          <mxGeometry relative="1" as="geometry" />
        </mxCell>
        <mxCell id="b2TmTaMQZMDxcuzw8Iw9-10" style="edgeStyle=orthogonalEdgeStyle;rounded=0;orthogonalLoop=1;jettySize=auto;html=1;" edge="1" parent="1">
          <mxGeometry relative="1" as="geometry">
            <mxPoint x="84.41" y="240" as="targetPoint" />
            <mxPoint x="84.41" y="350" as="sourcePoint" />
            <Array as="points">
              <mxPoint x="84.41" y="280" />
              <mxPoint x="84.41" y="280" />
            </Array>
          </mxGeometry>
        </mxCell>
        <mxCell id="b2TmTaMQZMDxcuzw8Iw9-3" value="Operador" style="shape=umlActor;verticalLabelPosition=bottom;verticalAlign=top;html=1;outlineConnect=0;" vertex="1" parent="1">
          <mxGeometry x="70" y="370" width="30" height="60" as="geometry" />
        </mxCell>
      </root>
    </mxGraphModel>
  </diagram>
</mxfile>
